<?xml version="1.0" encoding="utf-8"?>
<!-- Generator: Adobe Illustrator 23.0.1, SVG Export Plug-In . SVG Version: 6.00 Build 0)  -->
<svg version="1.1" id="Layer_1" xmlns="http://www.w3.org/2000/svg" xmlns:xlink="http://www.w3.org/1999/xlink" x="0px" y="0px"
	 viewBox="0 0 388.41 77.66" style="enable-background:new 0 0 388.41 77.66;" xml:space="preserve">
<style type="text/css">
	.st0{fill:#2f2055;}
</style>
<path class="st0" d="M23.62,0h11.61l0.2,0.2v12.94l-0.2,0.2h-7.01c-2.18,0-3.54,0.61-4.07,1.82c-0.36,0.67-0.53,1.98-0.53,3.91v6.07
	h11.75l0.07,0.13h0.13l-1.53,13.21H23.62v38.23l-0.2,0.2H8.01l-0.2-0.2V38.49H0.2L0,38.29V25.35l0.2-0.2h7.61v-7.95
	c0-8.31,2.78-13.57,8.34-15.78C18.69,0.47,21.18,0,23.62,0z M56.59,25.15c10.01,0,16.24,2.54,18.69,7.62
	c1.42,3.01,2.14,7.12,2.14,12.34v31.75l-0.2,0.2H64.4c-0.22,0-0.47-1.12-0.73-3.37c-4.67,2.56-9.41,3.84-14.21,3.84h-1.47
	c-4.63,0-8.34-1.84-11.15-5.53c-1.87-2.79-2.8-6-2.8-9.64v-0.41c0-6.25,2.18-10.38,6.54-12.4c1.91-1.3,6.45-1.96,13.61-1.96h7.41
	v-1.69c0-3.6-0.51-5.62-1.53-6.07c-1.11-0.9-3.12-1.35-6.01-1.35H39.44l-0.07-0.07h-0.13l1.4-13.28H56.59z M49.85,61.96
	c0,2.83,1.47,4.25,4.4,4.25c2.09,0,4.54-0.7,7.34-2.09v-5.8h-5.34c-3.12,0-4.98,0.32-5.61,0.94C50.12,59.84,49.85,60.74,49.85,61.96
	z M105.71,24.34c5.03,0,10.43,0.72,16.22,2.16v12.74l-0.2,0.2c-6.32-1.17-11.06-1.75-14.21-1.75c-3.87,0-6.41,0.65-7.61,1.96
	c-1.07,0.67-1.6,3.39-1.6,8.16v6.67c0,4.41,0.47,6.97,1.4,7.69c1.02,1.44,3.54,2.16,7.54,2.16h1.07c2.8,0,7.32-0.58,13.55-1.75
	l0.07,0.13v12.74c0,0.32-2.83,0.88-8.48,1.69c-2.23,0.36-4.83,0.54-7.81,0.54c-10.9,0-18.04-4.02-21.42-12.07
	c-1.16-2.47-1.74-6.79-1.74-12.94v-3.44c0-7.42,0.98-12.47,2.94-15.17C89.16,27.57,95.92,24.34,105.71,24.34z M148.76,24.34
	c10.63,0,17.51,3.48,20.62,10.45c1.2,2.83,1.8,6.76,1.8,11.8v8.9l-0.2,0.2h-28.63v1.55c0,3.51,1.13,5.62,3.4,6.34
	c1.2,0.5,3.07,0.74,5.61,0.74h1.2c5.29,0,11.03-0.58,17.22-1.75l0.13,0.13v12.74c0,0.18-2.67,0.72-8.01,1.62
	c-3.43,0.4-7.3,0.61-11.61,0.61c-11.3,0-18.62-3.89-21.96-11.66c-1.2-3.1-1.8-6.27-1.8-9.51V44.16c0-9.08,3.8-15.15,11.41-18.2
	C141.42,24.88,145.02,24.34,148.76,24.34z M142.35,42.54v2.43h13.01v-0.88c0-3.59-0.73-5.8-2.2-6.61c-1.2-0.72-2.63-1.08-4.27-1.08
	C144.53,36.4,142.35,38.45,142.35,42.54z M192,1.28l0.13,0.13v24.88c3.91-1.3,7.72-1.96,11.41-1.96c9.12,0,14.75,2.43,16.88,7.28
	c1.29,2.02,1.94,7.01,1.94,14.97v5.19c0,8.36-0.65,13.57-1.94,15.64c-0.4,1.35-1.49,2.94-3.27,4.79
	c-3.96,3.64-10.57,5.46-19.82,5.46c-6.41,0-13.41-0.72-21.02-2.16V4.11c0-0.27,2.29-0.7,6.87-1.28L192,1.28z M192.14,40.05v24.27
	l4.67,0.2h1.2c4.54,0,7.21-1.48,8.01-4.45c0.27-0.94,0.4-2,0.4-3.17V43.75c0-3.28-1.49-5.23-4.47-5.87l-1.34-0.07h-1
	C197.16,37.82,194.67,38.56,192.14,40.05z M248.86,24.47h1.73c10.86,0,17.8,4.07,20.82,12.2c0.84,2.79,1.27,5.96,1.27,9.51v9.51
	c0,10.11-3.54,16.65-10.61,19.62c-3.38,1.48-7.52,2.22-12.41,2.22c-10.46,0-17.35-3.39-20.69-10.18c-1.47-3.06-2.2-6.63-2.2-10.72
	V45.1c0-10.07,4.29-16.52,12.88-19.35C242.54,24.9,245.61,24.47,248.86,24.47z M242.59,44.56v13.15c0,4.41,2.36,6.61,7.07,6.61H250
	c3.65,0,5.87-1.59,6.67-4.79c0.13-0.81,0.2-1.91,0.2-3.3V45.57c0-4.04-1.16-6.43-3.47-7.15c-0.93-0.4-1.94-0.61-3-0.61h-1.34
	c-2.85,0-4.85,1.17-6.01,3.51C242.74,42.14,242.59,43.21,242.59,44.56z M299.25,24.47h1.67c10.37,0,17.15,3.66,20.35,10.99
	c1.2,2.97,1.8,6.34,1.8,10.11v11.06c0,10.38-4.45,16.94-13.35,19.68c-3.07,0.81-6.3,1.21-9.68,1.21c-10.54,0-17.53-3.51-20.96-10.52
	c-1.34-3.28-2-6.67-2-10.18V45.37c0-9.75,3.91-16.16,11.75-19.21C292.04,25.03,295.51,24.47,299.25,24.47z M292.91,44.9v12.4
	c0,4.67,2.31,7.01,6.94,7.01h0.47c4.63,0,6.94-2.4,6.94-7.21V44.97c0-3.51-1.2-5.73-3.6-6.67c-1.16-0.31-2.14-0.47-2.94-0.47h-1.27
	c-2.8,0-4.78,1.1-5.94,3.3C293.11,42.07,292.91,43.33,292.91,44.9z M343.16,1.28l0.13,0.13V48h0.07
	c9.16-14.83,13.95-22.45,14.35-22.85h16.82l0.2,0.2l-15.62,24.88c0,0.27,2.54,4.63,7.61,13.08l8.01,13.55l-0.13,0.07h-16.88
	c-0.27-0.27-5.05-8.29-14.35-24.07h-0.07v23.87l-0.2,0.2h-15.42l-0.2-0.2V4.11c0-0.27,1.47-0.56,4.4-0.88L343.16,1.28z M383.6,67.75
	c2.27,0,3.85,1.24,4.74,3.71l0.07,0.61v1.35c0,1.35-0.82,2.58-2.47,3.71c-0.67,0.36-1.31,0.54-1.94,0.54h-1
	c-0.8,0-1.76-0.47-2.87-1.42c-0.89-1.17-1.34-2.25-1.34-3.24v-0.34c0-2.43,1.25-4,3.74-4.72L383.6,67.75z M379.8,72.81
	c0,1.93,1.04,3.24,3.14,3.91l0.8,0.13c1.74,0,2.96-1.08,3.67-3.24l0.13-0.81c-0.4-2.79-1.71-4.18-3.94-4.18
	C381.47,68.63,380.2,70.02,379.8,72.81z M382.6,69.98h1.34c1.11,0,1.67,0.49,1.67,1.48c-0.13,0.9-0.42,1.35-0.87,1.35
	c0.4,0.27,0.76,1.17,1.07,2.7l-0.07,0.13h-0.8c-0.13,0-0.33-0.65-0.6-1.96c-0.27-0.27-0.53-0.4-0.8-0.4h-0.73v2.16l-0.2,0.2H382
	l-0.2-0.2v-5.19C381.89,70.07,382.16,69.98,382.6,69.98z M382.8,70.79v1.69h0.6c0.8,0,1.2-0.29,1.2-0.88c0-0.54-0.47-0.85-1.4-0.94
	L382.8,70.79z"/>
</svg>
