<?xml version="1.0" encoding="utf-8"?>
<!-- Generator: Adobe Illustrator 23.0.1, SVG Export Plug-In . SVG Version: 6.00 Build 0)  -->
<svg version="1.1" id="Calque_1" xmlns="http://www.w3.org/2000/svg" xmlns:xlink="http://www.w3.org/1999/xlink" x="0px" y="0px"
	 viewBox="0 0 506.9 240.76" style="enable-background:new 0 0 506.9 240.76;" xml:space="preserve">
<style type="text/css">
	.st0{fill:#8bd7ff;}
</style>
<path class="st0" d="M123.01,236.69c-20.29,7.47-40.81-4.89-53.88-43.47l-4.99-14.74H28.82l-8.92,22.97
	c-1.88,5.15,1.57,8.09,4.89,8.09h1.13v1.28H0v-1.29h1.16c3.76,0,8.29-2.18,10.95-7.42L44,125.53c-5.59-8-13.78-12.76-27.12-7.93
	l-0.36-1.3c30.18-12.78,39.21,11.88,45.61,30.01l15.71,44.51c7.27,20.63,21.65,49.61,45.06,44.59L123.01,236.69z M62.83,174.62
	l-10.17-30.04c-1.51-4.47-3.22-9.19-5.39-13.5l-16.95,43.54L62.83,174.62z"/>
<g>
	<path class="st0" d="M177.17,185.56c0.52,4.07,3.75,6.45,7.35,6.45h1.61v1.03H164.2v-0.97h1.57c2.17,0,4.14-2.07,3.93-4.39
		l-4.57-51.78l-21.2,48.08c0,0-2.81,6.25-3.46,10.51h-0.95l-25.8-57.1l-4.43,50.29c-0.2,2.22,1.76,4.39,3.93,4.39h1.57v0.97H95.25
		v-1.03h1.61c3.61,0,6.83-2.38,7.35-6.45l7.59-66h0.94l28.16,62.09l27.52-62.06h0.92L177.17,185.56z"/>
	<path class="st0" d="M246.92,185.53c2.04,4.58,5.77,6.48,8.86,6.48h0.84v1.03h-22.72v-1.02h0.89c2.6,0,5.31-2.34,3.83-6.46
		l-6.45-17.53H205l-6.76,17.59c-1.42,4.08,1.26,6.4,3.86,6.4h0.89v1.02h-20.31v-1.03h0.91c3.07,0,6.8-1.9,8.84-6.47l22.88-55.37
		c0,0,3.74-8.34,3.74-10.6h0.91L246.92,185.53z M231.04,164.94l-12.16-33.03l-12.69,33.03H231.04z"/>
	<path class="st0" d="M241.49,136.07c4.04-12.3,12.61-15.04,29.68-15.34c6.34-0.11,13.85,0.11,22.73,0.31
		c21.54,0.47,36.23,14.4,36.23,35.98c0,21.63-14.68,36.02-36.23,36.02h-34.12l0.02-1.03h1.28c3.34,0,6.08-2.58,6.43-5.89v-62.05
		c-17.54,0.49-21.58,6.04-24.91,12.42L241.49,136.07z M274.08,189.97h19.83c17.19,0,28.67-13.18,28.67-32.95
		c0-19.71-11.37-32.85-28.67-32.94h-19.83V189.97z"/>
	<path class="st0" d="M385.12,193.04h-48.89l0.02-1.03h1.28c3.53,0,6.4-2.89,6.46-6.47v-57.62c0-3.31-3.09-5.89-6.43-5.89h-1.28
		l-0.02-1.02h20.4c4.35-0.04,10.16-1.07,12.03-1.87v3.01v1.72v8.26l-1.02-0.01v-1.83c0-3.26-2.5-5.93-5.65-6.12h-11.49v31.81h19.17
		c2.7-0.05,4.88-2.3,4.88-5.07v-1.52l0.99-0.01v16.29l-0.99-0.01v-1.52c0-2.74-2.12-4.96-4.77-5.07h-19.27v30.83h21.53
		c10.69,0,14.8-5.64,17.91-13.48H391L385.12,193.04z"/>
	<path class="st0" d="M448.95,133.49c0.01-20.66,11.5-30.86,28.72-30.15v1.03c-14.4,0-24.01,9.74-24.01,28.98v34.23
		c0,16.13-10.88,26.89-27.19,26.89c-16.79,0-27.98-10.69-27.98-26.71v-40.64c-0.05-2.96-2.42-5.1-5.33-5.1h-1.64V121h20.49v1.03
		h-1.64c-2.86,0-5.2,2.06-5.32,4.94v39.28c0,14.99,8.57,24.99,21.42,24.99c13.48,0,22.47-9.46,22.49-23.66V133.49z"/>
	<path class="st0" d="M498.63,162.69c4.03,3.8,5.07,8.39,5.07,12.54c0,11.38-7.29,19.24-18.89,19.24c-4.94,0-13.12-1.44-17.08-5.62
		c-0.75-3.18-0.37-9.73,1.17-14.35h0.89c-1.01,10.6,5.57,17.39,14.55,16.88c7.36-0.42,13.52-5.57,13.52-13.79
		c0-4.02-1.44-7.2-3.96-9.59l-19.33-18.31c-4.08-3.8-5.47-8.77-5.47-12.75c0-8.67,6.23-17.39,17.73-17.39
		c2.65,0,5.97,0.46,8.65,1.06h4v12.63h-0.97c0.02-6.58-5.06-10.6-11.35-10.6c-7.43,0-12.41,5.56-12.41,11.83
		c0,2.68,0.88,6.48,4.06,9.49L498.63,162.69z"/>
</g>
<g>
	<g>
		<path class="st0" d="M95.16,205.35h0.89l2.07,6.04l1.99-6.07h0.67l1.99,6.07l2.07-6.04h0.86l-2.59,7.31h-0.69l-1.99-5.89l-2,5.89
			h-0.68L95.16,205.35z"/>
		<path class="st0" d="M123.71,212.74c-0.55,0-1.06-0.1-1.51-0.3c-0.45-0.2-0.84-0.47-1.17-0.81c-0.33-0.34-0.58-0.74-0.75-1.19
			c-0.18-0.45-0.26-0.93-0.26-1.43v-0.02c0-0.5,0.09-0.97,0.27-1.43s0.43-0.86,0.76-1.2c0.32-0.34,0.72-0.62,1.17-0.82
			c0.46-0.2,0.96-0.31,1.51-0.31s1.06,0.1,1.51,0.3c0.45,0.2,0.84,0.47,1.17,0.81c0.32,0.34,0.58,0.74,0.75,1.19
			c0.18,0.45,0.26,0.93,0.26,1.43v0.02c0,0.5-0.09,0.97-0.27,1.43c-0.18,0.46-0.43,0.86-0.76,1.2c-0.32,0.34-0.72,0.62-1.17,0.82
			S124.26,212.74,123.71,212.74z M123.73,211.98c0.41,0,0.8-0.08,1.15-0.23c0.35-0.16,0.65-0.37,0.9-0.64
			c0.25-0.27,0.44-0.58,0.59-0.94s0.21-0.75,0.21-1.16v-0.02c0-0.42-0.07-0.8-0.21-1.17c-0.14-0.36-0.34-0.68-0.6-0.95
			s-0.56-0.48-0.91-0.64s-0.73-0.24-1.15-0.24c-0.42,0-0.8,0.08-1.15,0.23c-0.35,0.16-0.65,0.37-0.9,0.64
			c-0.25,0.27-0.44,0.58-0.59,0.94c-0.14,0.36-0.21,0.75-0.21,1.16v0.02c0,0.42,0.07,0.8,0.21,1.17c0.14,0.36,0.34,0.68,0.6,0.95
			c0.26,0.27,0.56,0.48,0.91,0.64C122.93,211.9,123.31,211.98,123.73,211.98z"/>
		<path class="st0" d="M142.66,205.35h3.12c0.45,0,0.85,0.06,1.2,0.19c0.35,0.13,0.64,0.31,0.86,0.53c0.18,0.18,0.32,0.39,0.41,0.63
			s0.15,0.51,0.15,0.8v0.02c0,0.3-0.05,0.58-0.15,0.81s-0.23,0.45-0.41,0.62c-0.18,0.18-0.38,0.32-0.63,0.44
			c-0.24,0.11-0.5,0.2-0.79,0.24l2.23,2.97h-1.01l-2.1-2.82h-2.07v2.82h-0.82V205.35z M145.71,209.06c0.27,0,0.52-0.03,0.75-0.1
			s0.43-0.17,0.59-0.3c0.17-0.13,0.3-0.28,0.39-0.47c0.09-0.18,0.14-0.39,0.14-0.63v-0.02c0-0.45-0.16-0.8-0.49-1.05
			c-0.33-0.25-0.78-0.38-1.37-0.38h-2.24v2.94H145.71z"/>
		<path class="st0" d="M163.67,205.35h0.82v6.5h4.08v0.76h-4.9V205.35z"/>
		<path class="st0" d="M183.6,205.35h2.52c0.57,0,1.09,0.09,1.56,0.27c0.47,0.18,0.88,0.44,1.22,0.76c0.34,0.32,0.61,0.71,0.79,1.15
			c0.19,0.44,0.28,0.91,0.28,1.43v0.02c0,0.51-0.09,0.99-0.28,1.43c-0.19,0.44-0.45,0.83-0.79,1.15c-0.34,0.32-0.75,0.58-1.22,0.77
			s-0.99,0.28-1.56,0.28h-2.52V205.35z M184.41,206.11v5.74h1.7c0.46,0,0.87-0.07,1.24-0.22c0.37-0.15,0.69-0.35,0.95-0.6
			c0.26-0.26,0.46-0.56,0.6-0.91c0.14-0.35,0.21-0.72,0.21-1.12v-0.02c0-0.4-0.07-0.78-0.21-1.12s-0.34-0.65-0.6-0.91
			c-0.26-0.26-0.58-0.46-0.95-0.61c-0.37-0.15-0.79-0.22-1.24-0.22H184.41z"/>
		<path class="st0" d="M221.83,205.35h0.82v3.22h4.19v-3.22h0.82v7.26h-0.82v-3.27h-4.19v3.27h-0.82V205.35z"/>
		<path class="st0" d="M246.13,212.73c-0.45,0-0.86-0.07-1.23-0.2c-0.37-0.13-0.69-0.33-0.95-0.6c-0.27-0.27-0.47-0.6-0.62-0.99
			c-0.15-0.39-0.22-0.85-0.22-1.36v-4.22h0.82v4.17c0,0.79,0.2,1.39,0.59,1.81s0.94,0.63,1.63,0.63c0.67,0,1.2-0.2,1.6-0.6
			s0.59-1,0.59-1.79v-4.22h0.82v4.16c0,0.53-0.07,1-0.22,1.4c-0.15,0.4-0.35,0.74-0.62,1.01s-0.58,0.47-0.95,0.61
			C247,212.66,246.58,212.73,246.13,212.73z"/>
		<path class="st0" d="M264.61,205.35h0.83l2.64,3.96l2.64-3.96h0.83v7.26h-0.82v-5.88l-2.64,3.89h-0.04l-2.64-3.88v5.87h-0.8
			V205.35z"/>
		<path class="st0" d="M289.8,205.3h0.77l3.31,7.31h-0.88l-0.85-1.92h-3.95l-0.86,1.92h-0.84L289.8,205.3z M291.82,209.95
			l-1.65-3.69l-1.66,3.69H291.82z"/>
		<path class="st0" d="M308.82,205.35h0.77l4.57,5.82v-5.82h0.8v7.26h-0.65l-4.69-5.95v5.95h-0.8V205.35z"/>
		<path class="st0" d="M349.63,212.72c-0.58,0-1.11-0.09-1.59-0.29c-0.48-0.19-0.94-0.48-1.37-0.88l0.51-0.6
			c0.38,0.35,0.76,0.6,1.15,0.77c0.39,0.17,0.83,0.25,1.34,0.25c0.49,0,0.88-0.12,1.18-0.35s0.44-0.53,0.44-0.89v-0.02
			c0-0.17-0.03-0.32-0.08-0.45c-0.06-0.13-0.15-0.26-0.29-0.37c-0.14-0.11-0.33-0.21-0.58-0.3s-0.56-0.18-0.94-0.26
			c-0.42-0.09-0.78-0.19-1.08-0.31c-0.31-0.12-0.56-0.26-0.76-0.42s-0.35-0.36-0.45-0.58c-0.1-0.22-0.15-0.48-0.15-0.78v-0.02
			c0-0.28,0.06-0.55,0.18-0.79c0.12-0.24,0.28-0.45,0.5-0.63c0.21-0.18,0.47-0.31,0.76-0.41c0.29-0.1,0.61-0.15,0.95-0.15
			c0.53,0,1,0.07,1.39,0.22s0.78,0.37,1.16,0.67l-0.48,0.63c-0.34-0.28-0.68-0.48-1.02-0.6c-0.34-0.12-0.7-0.19-1.07-0.19
			c-0.48,0-0.85,0.11-1.13,0.34c-0.28,0.23-0.41,0.5-0.41,0.83v0.02c0,0.17,0.03,0.33,0.08,0.46c0.05,0.13,0.15,0.26,0.3,0.37
			c0.14,0.11,0.34,0.22,0.6,0.31c0.25,0.09,0.58,0.18,0.98,0.26c0.81,0.18,1.4,0.43,1.78,0.75s0.57,0.75,0.57,1.31v0.02
			c0,0.31-0.06,0.59-0.18,0.84c-0.12,0.25-0.29,0.47-0.51,0.65s-0.48,0.32-0.78,0.42C350.32,212.67,349.99,212.72,349.63,212.72z"/>
		<path class="st0" d="M369.24,209.74l-3.02-4.39h1l2.44,3.63l2.46-3.63h0.95l-3.02,4.38v2.88h-0.82V209.74z"/>
		<path class="st0" d="M387.91,205.35h0.83l2.64,3.96l2.64-3.96h0.83v7.26h-0.82v-5.88l-2.64,3.89h-0.04l-2.64-3.88v5.87h-0.8
			V205.35z"/>
		<path class="st0" d="M410.42,205.35h2.71c0.41,0,0.78,0.05,1.11,0.16c0.33,0.11,0.62,0.26,0.86,0.46c0.24,0.2,0.42,0.44,0.55,0.72
			c0.13,0.28,0.19,0.61,0.19,0.96v0.02c0,0.39-0.08,0.74-0.23,1.03c-0.15,0.29-0.36,0.54-0.62,0.74c-0.26,0.2-0.56,0.35-0.91,0.45
			c-0.34,0.1-0.71,0.15-1.1,0.15h-1.76v2.56h-0.82V205.35z M413.03,209.3c0.3,0,0.57-0.04,0.81-0.11s0.46-0.18,0.63-0.33
			c0.18-0.14,0.31-0.31,0.4-0.5s0.14-0.41,0.14-0.65v-0.02c0-0.52-0.18-0.91-0.53-1.18c-0.36-0.27-0.83-0.4-1.42-0.4h-1.83v3.19
			H413.03z"/>
		<path class="st0" d="M430.86,205.35h0.82v3.22h4.19v-3.22h0.82v7.26h-0.82v-3.27h-4.19v3.27h-0.82V205.35z"/>
		<path class="st0" d="M455.62,212.74c-0.55,0-1.06-0.1-1.51-0.3c-0.45-0.2-0.84-0.47-1.17-0.81c-0.33-0.34-0.58-0.74-0.75-1.19
			c-0.18-0.45-0.26-0.93-0.26-1.43v-0.02c0-0.5,0.09-0.97,0.27-1.43s0.43-0.86,0.76-1.2c0.33-0.34,0.72-0.62,1.17-0.82
			c0.46-0.2,0.96-0.31,1.51-0.31s1.06,0.1,1.51,0.3c0.45,0.2,0.84,0.47,1.17,0.81c0.33,0.34,0.58,0.74,0.75,1.19
			c0.18,0.45,0.26,0.93,0.26,1.43v0.02c0,0.5-0.09,0.97-0.27,1.43s-0.43,0.86-0.76,1.2c-0.33,0.34-0.72,0.62-1.17,0.82
			S456.17,212.74,455.62,212.74z M455.64,211.98c0.42,0,0.8-0.08,1.15-0.23c0.35-0.16,0.65-0.37,0.9-0.64
			c0.25-0.27,0.44-0.58,0.59-0.94c0.14-0.36,0.21-0.75,0.21-1.16v-0.02c0-0.42-0.07-0.8-0.21-1.17c-0.14-0.36-0.34-0.68-0.6-0.95
			s-0.56-0.48-0.91-0.64s-0.73-0.24-1.15-0.24s-0.8,0.08-1.15,0.23c-0.35,0.16-0.65,0.37-0.9,0.64s-0.44,0.58-0.59,0.94
			c-0.14,0.36-0.21,0.75-0.21,1.16v0.02c0,0.42,0.07,0.8,0.21,1.17c0.14,0.36,0.34,0.68,0.6,0.95s0.56,0.48,0.91,0.64
			C454.84,211.9,455.22,211.98,455.64,211.98z"/>
		<path class="st0" d="M474.57,205.35h0.77l4.57,5.82v-5.82h0.8v7.26h-0.65l-4.69-5.95v5.95h-0.8V205.35z"/>
		<path class="st0" d="M498.54,209.74l-3.02-4.39h1l2.44,3.63l2.46-3.63h0.95l-3.02,4.38v2.88h-0.82V209.74z"/>
	</g>
</g>
<g>
	<rect x="197.7" y="26.5" class="st0" width="6.54" height="30.25"/>
	<rect x="282.16" y="18.12" class="st0" width="6.54" height="47.01"/>

		<rect x="310.32" y="23.54" transform="matrix(-1 -8.659663e-11 8.659663e-11 -1 627.1754 83.2485)" class="st0" width="6.54" height="36.18"/>

		<rect x="225.85" y="11.15" transform="matrix(-1 -9.354663e-11 9.354663e-11 -1 458.2469 83.2485)" class="st0" width="6.54" height="60.94"/>
	<rect x="254.01" y="3.51" class="st0" width="6.54" height="76.19"/>
</g>
</svg>
