<?xml version="1.0" encoding="utf-8"?>
<!-- Generator: Adobe Illustrator 23.0.1, SVG Export Plug-In . SVG Version: 6.00 Build 0)  -->
<svg version="1.1" id="Layer_1" xmlns="http://www.w3.org/2000/svg" xmlns:xlink="http://www.w3.org/1999/xlink" x="0px" y="0px"
	 viewBox="0 0 329.11 67.31" style="enable-background:new 0 0 329.11 67.31;" xml:space="preserve">
<style type="text/css">
	.st0{fill:#2f2055;}
</style>
<g>
	<g>
		<path id="path3_8_" class="st0" d="M41.66,14.27v13.17l4.6,2.9c0.12,0.04,0.38,0.04,0.51,0l19.8-13.35c0-1.58-1.47-2.71-2.31-2.71
			H41.66z"/>
		<path id="path5_8_" class="st0" d="M41.66,32.35l4.2,2.88c0.59,0.43,1.3,0,1.3,0c-0.71,0.43,19.41-12.93,19.41-12.93v24.2
			c0,2.63-1.69,3.74-3.58,3.74H41.66L41.66,32.35L41.66,32.35z"/>
		<g id="g7_8_" transform="matrix(3.9178712,0,0,3.9178712,-13.481395,-41.384474)">
			<path id="path9_8_" class="st0" d="M32.01,25.7c-1.79,0-3.23-0.59-4.31-1.77c-1.08-1.18-1.62-2.72-1.62-4.61
				c0-2.03,0.55-3.66,1.65-4.87c1.1-1.21,2.6-1.82,4.49-1.82c1.75,0,3.15,0.59,4.22,1.76c1.07,1.18,1.6,2.71,1.6,4.61
				c0,2.06-0.55,3.7-1.64,4.9C35.31,25.1,33.84,25.7,32.01,25.7z M32.11,13.96c-1.33,0-2.41,0.48-3.24,1.44
				c-0.83,0.96-1.24,2.22-1.24,3.78c0,1.56,0.4,2.81,1.21,3.76c0.81,0.95,1.86,1.42,3.16,1.42c1.39,0,2.48-0.45,3.28-1.36
				c0.8-0.9,1.2-2.17,1.2-3.8c0-1.67-0.39-2.96-1.16-3.87C34.55,14.42,33.48,13.96,32.11,13.96z"/>
			<path id="path11_8_" class="st0" d="M47.19,25.49h-1.45v-1.43H45.7c-0.6,1.09-1.53,1.64-2.79,1.64c-2.15,0-3.23-1.28-3.23-3.85
				v-5.4h1.44v5.17c0,1.91,0.73,2.86,2.19,2.86c0.71,0,1.29-0.26,1.74-0.78c0.46-0.52,0.68-1.2,0.68-2.04v-5.21h1.45L47.19,25.49
				L47.19,25.49z"/>
			<path id="path13_8_" class="st0" d="M53.85,25.4c-0.34,0.19-0.79,0.28-1.35,0.28c-1.58,0-2.37-0.88-2.37-2.65v-5.35h-1.55v-1.24
				h1.55v-2.21l1.45-0.47v2.67h2.28v1.24h-2.28v5.09c0,0.61,0.1,1.04,0.31,1.3c0.21,0.26,0.55,0.39,1.02,0.39
				c0.36,0,0.68-0.1,0.94-0.3L53.85,25.4L53.85,25.4z"/>
		</g>
		<g id="g23_8_" transform="matrix(3.9178712,0,0,3.9178712,-13.481395,-41.384474)">
			<path id="path25_8_" class="st0" d="M8.53,17.27c-0.37,0-0.66,0.17-0.87,0.51c-0.21,0.34-0.32,0.8-0.32,1.36
				c0,0.57,0.11,1.03,0.32,1.36C7.87,20.84,8.15,21,8.5,21c0.36,0,0.64-0.16,0.85-0.49c0.21-0.32,0.32-0.77,0.32-1.35
				c0-0.6-0.1-1.07-0.31-1.4C9.16,17.44,8.88,17.27,8.53,17.27z"/>
			<path id="path27_8_" class="st0" d="M3.44,12.5v13.15l10,2.1V10.56L3.44,12.5z M10.13,21.3c-0.42,0.56-0.97,0.84-1.65,0.84
				c-0.66,0-1.2-0.27-1.62-0.81c-0.42-0.54-0.63-1.24-0.63-2.11c0-0.91,0.21-1.65,0.64-2.22c0.42-0.56,0.99-0.85,1.68-0.85
				c0.66,0,1.19,0.27,1.6,0.81c0.41,0.54,0.61,1.25,0.61,2.14C10.77,20.01,10.56,20.74,10.13,21.3z"/>
		</g>
		<path id="path31_8_" class="st0" d="M210.61,58.46h-5.67V6.06h5.67V58.46L210.61,58.46z"/>
		<path id="path33_8_" class="st0" d="M235.11,59.29c-5.23,0-9.41-1.65-12.53-4.96c-3.12-3.31-4.68-7.69-4.68-13.15
			c0-5.95,1.62-10.59,4.87-13.93c3.25-3.34,7.64-5.01,13.17-5.01c5.28,0,9.4,1.63,12.36,4.88c2.96,3.25,4.44,7.75,4.44,13.52
			c0,5.65-1.6,10.17-4.79,13.57C244.76,57.59,240.48,59.29,235.11,59.29z M235.52,27.01c-3.64,0-6.52,1.24-8.64,3.72
			c-2.12,2.48-3.18,5.89-3.18,10.25c0,4.19,1.07,7.5,3.21,9.92c2.14,2.42,5.01,3.63,8.61,3.63c3.66,0,6.48-1.19,8.45-3.56
			c1.97-2.37,2.95-5.75,2.95-10.13c0-4.42-0.98-7.84-2.95-10.23C242.01,28.21,239.19,27.01,235.52,27.01L235.52,27.01z"/>
		<path id="path35_8_" class="st0" d="M274.82,59.29c-5.23,0-9.41-1.65-12.53-4.96c-3.12-3.31-4.69-7.69-4.69-13.15
			c0-5.95,1.62-10.59,4.87-13.93c3.25-3.34,7.64-5.01,13.17-5.01c5.28,0,9.4,1.63,12.36,4.88c2.96,3.25,4.44,7.75,4.44,13.52
			c0,5.65-1.6,10.17-4.79,13.57C284.47,57.6,280.19,59.29,274.82,59.29z M275.23,27.01c-3.64,0-6.52,1.24-8.64,3.72
			c-2.12,2.48-3.18,5.89-3.18,10.25c0,4.19,1.07,7.5,3.21,9.92c2.14,2.42,5.01,3.63,8.61,3.63c3.66,0,6.48-1.19,8.45-3.56
			c1.97-2.37,2.96-5.75,2.96-10.13c0-4.42-0.99-7.84-2.96-10.23C281.71,28.21,278.9,27.01,275.23,27.01z"/>
		<path id="path37_8_" class="st0" d="M329.11,58.46h-7.95l-15.62-17.01h-0.14v17.01h-5.67V6.06h5.67v33.22h0.14l14.86-16.21h7.43
			l-16.42,17.08L329.11,58.46z"/>
	</g>
</g>
</svg>
